FFmpeg version SVN-r25716, Copyright (c) 2000-2010 the FFmpeg developers  built on Nov 10 2010 12:23:18 with gcc 4.1.2 20080704 (Red Hat 4.1.2-48)  configuration: --enable-libmp3lame --enable-shared --disable-mmx --arch=x86_64  libavutil     50.33. 0 / 50.33. 0  libavcore      0.12. 1 /  0.12. 1  libavcodec    52.94. 4 / 52.94. 4  libavformat   52.84. 0 / 52.84. 0  libavdevice   52. 2. 2 / 52. 2. 2  libavfilter    1.59. 0 /  1.59. 0  libswscale     0.12. 0 /  0.12. 0Input #0, avi, from '/RAID10/data/converted_video_files/47374.avi':  Duration: 00:00:09.35, start: 0.000000, bitrate: 20978 kb/s    Stream #0.0: Video: msvideo1, rgb555le, 1024x1024, 20 tbr, 20 tbn, 20 tbc[buffer @ 0x11a9a2f0] w:1024 h:1024 pixfmt:rgb555le[ffsink @ 0x11ab7b60] auto-inserting filter 'auto-inserted scaler 0' between the filter 'src' and the filter 'out'[scale @ 0x11ab7e80] w:1024 h:1024 fmt:rgb555le -> w:1024 h:1024 fmt:yuv420p flags:0x4Output #0, flv, to '/RAID10/data/converted_video_files/47374.flv':  Metadata:    encoder         : Lavf52.84.0    Stream #0.0: Video: flv, yuv420p, 1024x1024, q=2-31, 600 kb/s, 1k tbn, 24 tbcStream mapping:  Stream #0.0 -> #0.0Press [q] to stop encodingframe=    8 fps=  0 q=12.3 size=     564kB time=0.37 bitrate=12347.9kbits/s    frame=   18 fps= 16 q=31.0 size=     616kB time=0.88 bitrate=5771.4kbits/s    frame=   29 fps= 18 q=31.0 size=     654kB time=1.46 bitrate=3674.6kbits/s    frame=   41 fps= 19 q=31.0 size=     694kB time=2.04 bitrate=2785.4kbits/s    frame=   52 fps= 19 q=31.0 size=     732kB time=2.58 bitrate=2319.2kbits/s    frame=   63 fps= 20 q=31.0 size=     767kB time=3.12 bitrate=2010.9kbits/s    frame=   74 fps= 20 q=31.0 size=     806kB time=3.71 bitrate=1780.4kbits/s    frame=   85 fps= 20 q=24.8 size=     843kB time=4.25 bitrate=1625.0kbits/s    frame=   96 fps= 20 q=31.0 size=     857kB time=4.79 bitrate=1464.2kbits/s    frame=  106 fps= 20 q=31.0 size=     894kB time=5.29 bitrate=1384.5kbits/s    frame=  116 fps= 20 q=31.0 size=     931kB time=5.79 bitrate=1316.5kbits/s    frame=  126 fps= 20 q=31.0 size=     970kB time=6.29 bitrate=1262.5kbits/s    frame=  138 fps= 20 q=31.0 size=    1010kB time=6.88 bitrate=1203.5kbits/s    frame=  148 fps= 20 q=31.0 size=    1046kB time=7.38 bitrate=1161.7kbits/s    frame=  160 fps= 20 q=31.0 size=    1082kB time=8.00 bitrate=1108.1kbits/s    frame=  170 fps= 20 q=31.0 size=    1119kB time=8.50 bitrate=1078.4kbits/s    frame=  181 fps= 20 q=24.8 size=    1157kB time=9.04 bitrate=1048.4kbits/s    frame=  187 fps= 20 q=31.0 Lsize=    1163kB time=9.33 bitrate=1020.7kbits/s    video:1160kB audio:0kB global headers:0kB muxing overhead 0.269591%